<?xml version="1.0" encoding="utf-8"?>
<!-- Generator: Adobe Illustrator 23.0.1, SVG Export Plug-In . SVG Version: 6.00 Build 0)  -->
<svg version="1.1" xmlns="http://www.w3.org/2000/svg" xmlns:xlink="http://www.w3.org/1999/xlink" x="0px" y="0px" width="139.7px"
	 height="164.6px" viewBox="0 0 139.7 164.6" style="enable-background:new 0 0 139.7 164.6;" xml:space="preserve">
<style type="text/css">
	.st0{display:none;}
	.st1{display:inline;}
	.st2{fill:#06927D;}
	.st3{fill:#72C6A4;}
	.st4{fill:#02927D;}
	.st5{fill:#FFFFFF;}
</style>
<g id="bg" class="st0">
</g>
<g id="logo">
	<g>
		<g>
			<path class="st2" d="M117.6,84.4c0-4.6-3.7-8.3-8.3-8.3c-4.6,0-8.3,3.7-8.3,8.3c0,3.8,2.5,6.9,6,8c-0.4,3.1-2.1,6-4.7,7.8
				l-18,12.5c-4.2,2.9-6.7,7.7-6.7,12.8v30.8c0,1.2,1,2.2,2.2,2.2c1.2,0,2.2-1,2.2-2.2v-30.8c0-3.6,1.8-7.1,4.8-9.1l18-12.5
				c3.8-2.7,6.2-6.9,6.6-11.4C115,91.4,117.6,88.2,117.6,84.4z M109.3,88.2c-2.1,0-3.9-1.7-3.9-3.9s1.7-3.9,3.9-3.9
				c2.1,0,3.9,1.7,3.9,3.9S111.4,88.2,109.3,88.2z"/>
			<path class="st2" d="M54.8,112.7l-16.9-10.4c-3.3-2-5.3-5.6-5.3-9.4v-0.4c3.5-1,6.1-4.2,6.1-8c0-4.6-3.7-8.3-8.3-8.3
				s-8.3,3.7-8.3,8.3c0,3.8,2.6,7,6.1,8v0.4c0,5.4,2.8,10.4,7.4,13.2l16.9,10.4c3.3,2,5.3,5.6,5.3,9.4v30.3c0,1.2,1,2.2,2.2,2.2
				s2.2-1,2.2-2.2v-30.3C62.2,120.5,59.4,115.5,54.8,112.7z M26.6,84.4c0-2.1,1.7-3.9,3.9-3.9s3.9,1.7,3.9,3.9s-1.7,3.9-3.9,3.9
				S26.6,86.5,26.6,84.4z"/>
			<path class="st2" d="M89.8,75.7c4.6-2.9,7.4-7.8,7.4-13.2v-1.8c0-0.1,0-0.2-0.1-0.3c3.5-1,6.2-4.2,6.2-8c0-4.6-3.7-8.3-8.3-8.3
				c-4.6,0-8.3,3.7-8.3,8.3c0,3.8,2.6,7,6.1,8c0,0.1-0.1,0.2-0.1,0.3v1.8c0,3.9-2,7.4-5.3,9.4l-15.4,9.5v-39c3.5-1,6.1-4.2,6.1-8
				c0-4.6-3.7-8.3-8.3-8.3s-8.3,3.7-8.3,8.3c0,3.8,2.6,7,6.1,8v39L52.3,72c-3.3-2-5.3-5.6-5.3-9.4v-1.8c0-0.1,0-0.2-0.1-0.3
				c3.5-1,6.2-4.2,6.2-8c0-4.6-3.7-8.3-8.3-8.3c-4.6,0-8.3,3.7-8.3,8.3c0,3.8,2.6,7,6.1,8c0,0.1-0.1,0.2-0.1,0.3v1.8
				c0,5.4,2.8,10.4,7.4,13.2l17.7,11v75.7c0,1.2,1,2.2,2.2,2.2c1.2,0,2.2-1,2.2-2.2V86.7L89.8,75.7z M91.1,52.4
				c0-2.1,1.7-3.9,3.9-3.9s3.9,1.7,3.9,3.9s-1.7,3.9-3.9,3.9S91.1,54.6,91.1,52.4z M40.9,52.4c0-2.1,1.7-3.9,3.9-3.9
				c2.1,0,3.9,1.7,3.9,3.9s-1.7,3.9-3.9,3.9C42.6,56.3,40.9,54.6,40.9,52.4z M66,34.5c0-2.1,1.7-3.9,3.9-3.9s3.9,1.7,3.9,3.9
				c0,2.1-1.7,3.9-3.9,3.9S66,36.6,66,34.5z"/>
		</g>
		<path class="st3" d="M129.2,31L80.3,2.8c-6.5-3.7-14.5-3.7-21,0L10.5,31C4,34.8,0,41.7,0,49.2v56.4c0,7.5,4,14.5,10.5,18.2
			l23.6,13.5c-0.2,0.6-0.3,1.3-0.3,2c0,4.6,3.7,8.3,8.3,8.3s8.3-3.7,8.3-8.3s-3.7-8.3-8.3-8.3c-2.3,0-4.4,0.9-5.9,2.4l-23.5-13.5
			c-5.1-2.9-8.3-8.4-8.3-14.3V49.2c0-5.9,3.2-11.4,8.3-14.3L61.6,6.7c5.1-2.9,11.4-2.9,16.5,0L127,34.9c5.1,2.9,8.3,8.4,8.3,14.3
			v56.4c0,5.9-3.2,11.4-8.3,14.3l-23.5,13.5c-1.5-1.5-3.6-2.5-5.9-2.5c-4.6,0-8.3,3.7-8.3,8.3s3.7,8.3,8.3,8.3s8.3-3.7,8.3-8.3
			c0-0.7-0.1-1.3-0.3-1.9l23.6-13.6c6.5-3.7,10.5-10.7,10.5-18.2V49.2C139.7,41.7,135.7,34.8,129.2,31z M42.1,135.5
			c2.1,0,3.9,1.7,3.9,3.9s-1.7,3.9-3.9,3.9c-2.1,0-3.9-1.7-3.9-3.9S40,135.5,42.1,135.5z M97.6,143.2c-2.1,0-3.9-1.7-3.9-3.9
			s1.7-3.9,3.9-3.9s3.9,1.7,3.9,3.9S99.7,143.2,97.6,143.2z"/>
	</g>
</g>
</svg>
