<?xml version="1.0" encoding="utf-8"?>
<!-- Generator: Adobe Illustrator 23.0.1, SVG Export Plug-In . SVG Version: 6.00 Build 0)  -->
<svg version="1.1" xmlns="http://www.w3.org/2000/svg" xmlns:xlink="http://www.w3.org/1999/xlink" x="0px" y="0px" width="248.3px"
	 height="66.2px" viewBox="0 0 248.3 66.2" style="enable-background:new 0 0 248.3 66.2;" xml:space="preserve">
<style type="text/css">
	.st0{display:none;}
	.st1{display:inline;}
	.st2{fill:#06927D;}
	.st3{fill:#72C6A4;}
	.st4{fill:#02927D;}
	.st5{fill:#FFFFFF;}
</style>
<g id="bg" class="st0">
</g>
<g id="logo">
	<g>
		<g>
			<g>
				<path class="st2" d="M47.3,33.9c0-1.8-1.5-3.3-3.3-3.3c-1.8,0-3.3,1.5-3.3,3.3c0,1.5,1,2.8,2.4,3.2c-0.1,1.3-0.8,2.4-1.9,3.2
					l-7.3,5c-1.7,1.2-2.7,3.1-2.7,5.1v12.4c0,0.5,0.4,0.9,0.9,0.9c0.5,0,0.9-0.4,0.9-0.9V50.5c0-1.5,0.7-2.8,1.9-3.7l7.3-5
					c1.5-1.1,2.5-2.8,2.7-4.6C46.2,36.8,47.3,35.5,47.3,33.9z M43.9,35.5c-0.9,0-1.6-0.7-1.6-1.6s0.7-1.6,1.6-1.6s1.6,0.7,1.6,1.6
					S44.8,35.5,43.9,35.5z"/>
				<path class="st2" d="M22,45.3l-6.8-4.2c-1.3-0.8-2.1-2.2-2.1-3.8v-0.2c1.4-0.4,2.4-1.7,2.4-3.2c0-1.8-1.5-3.3-3.3-3.3
					s-3.3,1.5-3.3,3.3c0,1.5,1,2.8,2.4,3.2v0.2c0,2.2,1.1,4.2,3,5.3l6.8,4.2c1.3,0.8,2.1,2.2,2.1,3.8v12.2c0,0.5,0.4,0.9,0.9,0.9
					c0.5,0,0.9-0.4,0.9-0.9V50.6C25,48.5,23.9,46.5,22,45.3z M10.7,33.9c0-0.9,0.7-1.6,1.6-1.6s1.6,0.7,1.6,1.6s-0.7,1.6-1.6,1.6
					S10.7,34.8,10.7,33.9z"/>
				<path class="st2" d="M36.1,30.5c1.9-1.1,3-3.1,3-5.3v-0.7c0,0,0-0.1,0-0.1c1.4-0.4,2.5-1.7,2.5-3.2c0-1.8-1.5-3.3-3.3-3.3
					c-1.8,0-3.3,1.5-3.3,3.3c0,1.5,1.1,2.8,2.5,3.2c0,0,0,0.1,0,0.1v0.7c0,1.6-0.8,3-2.1,3.8L29,32.8V17.1c1.4-0.4,2.4-1.7,2.4-3.2
					c0-1.8-1.5-3.3-3.3-3.3s-3.3,1.5-3.3,3.3c0,1.5,1,2.8,2.4,3.2v15.7L21,28.9c-1.3-0.8-2.1-2.2-2.1-3.8v-0.7c0,0,0-0.1,0-0.1
					c1.4-0.4,2.5-1.7,2.5-3.2c0-1.8-1.5-3.3-3.3-3.3c-1.8,0-3.3,1.5-3.3,3.3c0,1.5,1.1,2.8,2.5,3.2c0,0,0,0.1,0,0.1v0.7
					c0,2.2,1.1,4.2,3,5.3l7.1,4.4v30.4c0,0.5,0.4,0.9,0.9,0.9c0.5,0,0.9-0.4,0.9-0.9V34.9L36.1,30.5z M36.6,21.1
					c0-0.9,0.7-1.6,1.6-1.6s1.6,0.7,1.6,1.6s-0.7,1.6-1.6,1.6S36.6,21.9,36.6,21.1z M16.5,21.1c0-0.9,0.7-1.6,1.6-1.6
					c0.9,0,1.6,0.7,1.6,1.6s-0.7,1.6-1.6,1.6C17.1,22.6,16.5,21.9,16.5,21.1z M26.5,13.9c0-0.9,0.7-1.6,1.6-1.6s1.6,0.7,1.6,1.6
					s-0.7,1.6-1.6,1.6S26.5,14.7,26.5,13.9z"/>
			</g>
			<path class="st3" d="M52,12.5L32.3,1.1c-2.6-1.5-5.8-1.5-8.4,0L4.2,12.5C1.6,14,0,16.8,0,19.8v22.7c0,3,1.6,5.8,4.2,7.3l9.5,5.4
				c-0.1,0.3-0.1,0.5-0.1,0.8c0,1.8,1.5,3.3,3.3,3.3s3.3-1.5,3.3-3.3c0-1.8-1.5-3.3-3.3-3.3c-0.9,0-1.8,0.4-2.4,1l-9.5-5.4
				c-2.1-1.2-3.3-3.4-3.3-5.8V19.8c0-2.4,1.3-4.6,3.3-5.8L24.8,2.7c2-1.2,4.6-1.2,6.6,0L51.1,14c2,1.2,3.3,3.4,3.3,5.8v22.7
				c0,2.4-1.3,4.6-3.3,5.8l-9.5,5.4c-0.6-0.6-1.4-1-2.4-1c-1.8,0-3.3,1.5-3.3,3.3c0,1.8,1.5,3.3,3.3,3.3c1.8,0,3.3-1.5,3.3-3.3
				c0-0.3,0-0.5-0.1-0.8l9.5-5.5c2.6-1.5,4.2-4.3,4.2-7.3V19.8C56.2,16.8,54.6,14,52,12.5z M16.9,54.5c0.9,0,1.6,0.7,1.6,1.6
				c0,0.9-0.7,1.6-1.6,1.6s-1.6-0.7-1.6-1.6C15.4,55.2,16.1,54.5,16.9,54.5z M39.2,57.6c-0.9,0-1.6-0.7-1.6-1.6
				c0-0.9,0.7-1.6,1.6-1.6s1.6,0.7,1.6,1.6C40.8,56.9,40.1,57.6,39.2,57.6z"/>
		</g>
		<g>
			<path class="st4" d="M83.3,55.6c-3.8,0-6.4-0.5-7.9-1.5c-1.5-1-2.2-2.9-2.2-5.6c0-1.3,0.3-2.3,0.9-3.1c0.6-0.8,1.5-1.7,2.9-2.7
				c-0.9-0.6-1.3-1.7-1.3-3.3c0-0.5,0.4-1.5,1.2-3l0.4-0.8c-2.5-1.1-3.7-3.5-3.7-7.1c0-5.4,2.9-8.1,8.8-8.1c1.5,0,2.9,0.2,4.2,0.5
				l0.7,0.1l4-0.1c1.7,0,3,1.3,3,2.9v0l-4.5-0.1c1,1,1.6,2.6,1.6,4.7c0,3-0.7,5-2.2,6.2c-1.5,1.2-3.8,1.8-6.9,1.8
				c-0.8,0-1.6-0.1-2.3-0.2C79.3,37.7,79,38.6,79,39c0,1,0.3,1.6,0.9,1.8c0.6,0.2,2.4,0.4,5.4,0.4c3,0,5.2,0.5,6.5,1.4
				c1.3,0.9,2,2.8,2,5.5C93.8,53.1,90.3,55.6,83.3,55.6z M76.7,48.2c0,1.7,0.5,2.8,1.4,3.5c0.9,0.6,2.6,1,5.2,1c2.5,0,4.3-0.3,5.4-1
				c1.1-0.7,1.6-1.9,1.6-3.5c0-1.6-0.4-2.7-1.2-3.1c-0.8-0.5-2.3-0.7-4.6-0.7L79.3,44c-1,0.8-1.7,1.4-2.1,2
				C76.9,46.6,76.7,47.3,76.7,48.2z M77,28.5c0,1.9,0.4,3.2,1.3,4c0.8,0.8,2.2,1.2,4.1,1.2c1.9,0,3.3-0.4,4.1-1.2
				c0.8-0.8,1.2-2.1,1.2-4c0-1.9-0.4-3.2-1.2-4c-0.8-0.8-2.2-1.2-4.1-1.2c-1.9,0-3.3,0.4-4.1,1.2C77.4,25.3,77,26.6,77,28.5z"/>
			<path class="st4" d="M122.2,44.5V20.9h0.3c1.8,0,3.2,1.4,3.2,3.2v0c2.7-1.9,5.6-3.1,8.7-3.7v3.6c-1.3,0.3-2.7,0.6-4.1,1.2
				c-1.4,0.5-2.5,1-3.3,1.4l-1.2,0.6v17.4H122.2z"/>
			<path class="st4" d="M156.1,10.6v33.9h-3.5v-1.6c-2.4,1.4-4.8,2.1-7.2,2.1c-1.3,0-2.4-0.2-3.3-0.5c-0.9-0.3-1.8-0.9-2.6-1.7
				c-1.7-1.7-2.6-4.8-2.6-9.4s0.8-7.9,2.3-9.9c1.5-2,4.1-3.1,7.6-3.1c1.8,0,3.8,0.2,5.8,0.6v-7C152.6,12.1,154.2,10.6,156.1,10.6
				L156.1,10.6z M143.8,41.5c0.6,0.2,1.3,0.3,2.2,0.3c0.9,0,1.9-0.2,3-0.5c1.1-0.3,2-0.6,2.6-0.9l0.9-0.4V24c-2-0.4-3.9-0.6-5.6-0.6
				c-2.4,0-4.1,0.8-5,2.3c-0.9,1.5-1.4,3.9-1.4,7.1c0,3.7,0.6,6.1,1.7,7.4C142.7,40.9,143.3,41.3,143.8,41.5z"/>
			<path class="st4" d="M190.4,44.5h-3.5V20.9h3.5v1.7c2.6-1.4,5-2.1,7.3-2.1c3.2,0,5.3,0.9,6.4,2.6c1.1,1.7,1.6,4.7,1.6,9.1v12.5
				h-3.5V32.1c0-3.3-0.3-5.5-1-6.7c-0.6-1.2-2-1.8-4.1-1.8c-1,0-2.1,0.2-3.2,0.5c-1.1,0.3-2,0.6-2.6,0.9l-0.9,0.4V44.5z"/>
			<path class="st4" d="M236.1,44.5V20.9h0.3c1.8,0,3.2,1.4,3.2,3.2v0c2.7-1.9,5.6-3.1,8.7-3.7v3.6c-1.3,0.3-2.7,0.6-4.1,1.2
				c-1.4,0.5-2.5,1-3.3,1.4l-1.2,0.6v17.4H236.1z"/>
			<path class="st4" d="M115.2,40.1V28c0-2.6-0.6-4.5-1.8-5.8c-1.2-1.2-3.2-1.8-5.8-1.8c-2,0-4.1,0.2-6.5,0.6
				c-1.5,0.2-2.7,1.6-2.6,3.2l1.5-0.1c2.7-0.3,5.3-0.5,7.8-0.5c1.2,0,2.1,0.3,2.8,1c0.7,0.7,1,1.7,1,3.2h0V28v2v2.7v2.4v5.4
				l-1.1,0.4c-2.1,0.7-4.2,1.1-6.3,1.1c-2.4,0-3.6-1.4-3.6-4.3c0-1.3,0.3-2.3,0.9-3c0.6-0.7,1.7-1.1,3.1-1.2l4.8-0.5v-2.7l-5.2,0.5
				c-2.5,0.3-4.3,0.9-5.5,2c-1.2,1.1-1.7,2.8-1.7,5.1c0,2.3,0.6,4.1,1.7,5.3c1.1,1.2,2.8,1.8,5,1.8c2.8,0,5.7-0.6,8.5-1.9
				c0.7,0.7,1.5,1.1,2.5,1.5c1.6,0.5,3.2-0.7,3.3-2.4C116.2,42,115.3,41.3,115.2,40.1z"/>
			<path class="st4" d="M181.1,34.2l0.2-2.7c0-3.8-0.8-6.6-2.4-8.4c-1.6-1.8-4-2.7-7.1-2.7c-6.6,0-9.9,4.1-9.9,12.4
				c0,4.2,0.7,7.2,2.1,9.2c1.4,2,3.8,3,7.2,3c2.6,0,5.6-0.3,9.2-0.8l-0.1-2.8l-1.4,0.1c-2.4,0.2-4.8,0.3-7.2,0.3s-4-0.6-4.9-1.9
				c-0.9-1.3-1.4-3.2-1.4-5.8c0-1.1,0-2.8,0-2.8c0-2.8,0.6-4.8,1.6-6.1c1.1-1.3,2.6-1.9,4.7-1.9s3.6,0.6,4.5,1.8
				c0.9,1.2,1.4,3.2,1.4,6.1h-10.1v2.8H181.1z"/>
			<path class="st4" d="M230.4,34.2l0.2-2.7c0-3.8-0.8-6.6-2.4-8.4c-1.6-1.8-4-2.7-7.1-2.7c-6.6,0-9.9,4.1-9.9,12.4
				c0,4.2,0.7,7.2,2.1,9.2c1.4,2,3.8,3,7.2,3c2.6,0,5.6-0.3,9.2-0.8l-0.1-2.8l-1.4,0.1c-2.4,0.2-4.8,0.3-7.2,0.3
				c-2.3,0-4-0.6-4.9-1.9c-0.9-1.3-1.4-3.2-1.4-5.8c0-1.1,0-2.8,0-2.8c0-2.8,0.6-4.8,1.6-6.1c1.1-1.3,2.6-1.9,4.7-1.9
				s3.6,0.6,4.5,1.8c0.9,1.2,1.4,3.2,1.4,6.1h-10.1v2.8H230.4z"/>
		</g>
	</g>
</g>
</svg>
