<?xml version="1.0" encoding="utf-8"?>
<!-- Generator: Adobe Illustrator 23.0.1, SVG Export Plug-In . SVG Version: 6.00 Build 0)  -->
<svg version="1.1" xmlns="http://www.w3.org/2000/svg" xmlns:xlink="http://www.w3.org/1999/xlink" x="0px" y="0px" width="175.1px"
	 height="153.2px" viewBox="0 0 175.1 153.2" style="enable-background:new 0 0 175.1 153.2;" xml:space="preserve">
<style type="text/css">
	.st0{display:none;}
	.st1{display:inline;}
	.st2{fill:#06927D;}
	.st3{fill:#72C6A4;}
	.st4{fill:#02927D;}
	.st5{fill:#FFFFFF;}
</style>
<g id="bg" class="st0">
</g>
<g id="logo">
	<g>
		<g>
			<path d="M116.2,50.7c0-2.8-2.2-5-5-5s-5,2.2-5,5c0,2.3,1.5,4.2,3.6,4.8c-0.2,1.9-1.2,3.6-2.8,4.7l-10.8,7.5c-2.5,1.7-4,4.6-4,7.7
				v18.5c0,0.7,0.6,1.3,1.3,1.3c0.7,0,1.3-0.6,1.3-1.3V75.4c0-2.2,1.1-4.2,2.9-5.5l10.8-7.5c2.3-1.6,3.7-4.1,4-6.9
				C114.7,54.9,116.2,53,116.2,50.7z M111.2,53c-1.3,0-2.3-1-2.3-2.3c0-1.3,1-2.3,2.3-2.3c1.3,0,2.3,1,2.3,2.3
				C113.6,52,112.5,53,111.2,53z"/>
			<path d="M78.5,67.7l-10.1-6.3c-2-1.2-3.2-3.3-3.2-5.7v-0.3c2.1-0.6,3.7-2.5,3.7-4.8c0-2.8-2.2-5-5-5s-5,2.2-5,5
				c0,2.3,1.6,4.2,3.7,4.8v0.3c0,3.3,1.7,6.2,4.4,8L77.1,70c2,1.2,3.2,3.3,3.2,5.7v18.2c0,0.7,0.6,1.3,1.3,1.3
				c0.7,0,1.3-0.6,1.3-1.3V75.7C82.9,72.4,81.3,69.4,78.5,67.7z M61.5,50.7c0-1.3,1-2.3,2.3-2.3c1.3,0,2.3,1,2.3,2.3
				c0,1.3-1,2.3-2.3,2.3C62.6,53,61.5,52,61.5,50.7z"/>
			<path d="M99.5,45.5c2.8-1.7,4.4-4.7,4.4-8v-1.1c0-0.1,0-0.1,0-0.2c2.1-0.6,3.7-2.5,3.7-4.8c0-2.8-2.2-5-5-5s-5,2.2-5,5
				c0,2.3,1.6,4.2,3.7,4.8c0,0.1,0,0.1,0,0.2v1.1c0,2.3-1.2,4.5-3.2,5.7l-9.2,5.7V25.5c2.1-0.6,3.7-2.5,3.7-4.8c0-2.8-2.2-5-5-5
				c-2.8,0-5,2.2-5,5c0,2.3,1.6,4.2,3.7,4.8v23.4L77,43.2c-2-1.2-3.2-3.3-3.2-5.7v-1.1c0-0.1,0-0.1,0-0.2c2.1-0.6,3.7-2.5,3.7-4.8
				c0-2.8-2.2-5-5-5c-2.8,0-5,2.2-5,5c0,2.3,1.6,4.2,3.7,4.8c0,0.1,0,0.1,0,0.2v1.1c0,3.3,1.7,6.2,4.4,8l10.6,6.6v45.5
				c0,0.7,0.6,1.3,1.3,1.3c0.7,0,1.3-0.6,1.3-1.3V52.1L99.5,45.5z M100.3,31.5c0-1.3,1-2.3,2.3-2.3s2.3,1,2.3,2.3
				c0,1.3-1,2.3-2.3,2.3S100.3,32.8,100.3,31.5z M70.2,31.5c0-1.3,1-2.3,2.3-2.3c1.3,0,2.3,1,2.3,2.3c0,1.3-1,2.3-2.3,2.3
				C71.2,33.8,70.2,32.8,70.2,31.5z M85.2,20.7c0-1.3,1-2.3,2.3-2.3c1.3,0,2.3,1,2.3,2.3s-1,2.3-2.3,2.3
				C86.3,23.1,85.2,22,85.2,20.7z"/>
		</g>
		<path d="M123.2,18.6l-29.4-17c-3.9-2.2-8.7-2.2-12.6,0l-29.4,17c-3.9,2.2-6.3,6.4-6.3,10.9v33.9c0,4.5,2.4,8.7,6.3,10.9L66,82.5
			c-0.1,0.4-0.2,0.8-0.2,1.2c0,2.8,2.2,5,5,5c2.8,0,5-2.2,5-5s-2.2-5-5-5c-1.4,0-2.6,0.6-3.5,1.5l-14.1-8.1c-3.1-1.8-5-5.1-5-8.6
			V29.6c0-3.5,1.9-6.8,5-8.6L82.6,4c3.1-1.8,6.9-1.8,9.9,0l29.4,17c3.1,1.8,5,5.1,5,8.6v33.9c0,3.5-1.9,6.8-5,8.6l-14.1,8.1
			c-0.9-0.9-2.2-1.5-3.5-1.5c-2.8,0-5,2.2-5,5s2.2,5,5,5s5-2.2,5-5c0-0.4-0.1-0.8-0.2-1.2l14.2-8.2c3.9-2.2,6.3-6.4,6.3-10.9V29.6
			C129.5,25.1,127.1,20.9,123.2,18.6z M70.9,81.4c1.3,0,2.3,1,2.3,2.3c0,1.3-1,2.3-2.3,2.3c-1.3,0-2.3-1-2.3-2.3
			C68.6,82.4,69.6,81.4,70.9,81.4z M104.2,86c-1.3,0-2.3-1-2.3-2.3c0-1.3,1-2.3,2.3-2.3s2.3,1,2.3,2.3C106.5,85,105.5,86,104.2,86z"
			/>
		<g>
			<path d="M10.2,153.2c-3.8,0-6.4-0.5-7.9-1.5c-1.5-1-2.2-2.9-2.2-5.6c0-1.3,0.3-2.3,0.9-3.1c0.6-0.8,1.5-1.7,2.9-2.7
				c-0.9-0.6-1.3-1.7-1.3-3.3c0-0.5,0.4-1.5,1.2-3l0.4-0.8c-2.5-1.1-3.7-3.5-3.7-7.1c0-5.4,2.9-8.1,8.8-8.1c1.5,0,2.9,0.2,4.2,0.5
				l0.7,0.1l4-0.1c1.7,0,3,1.3,3,2.9v0l-4.5-0.1c1,1,1.6,2.6,1.6,4.7c0,3-0.7,5-2.2,6.2S12.1,134,9,134c-0.8,0-1.6-0.1-2.3-0.2
				c-0.6,1.4-0.9,2.3-0.9,2.7c0,1,0.3,1.6,0.9,1.8c0.6,0.2,2.4,0.4,5.4,0.4c3,0,5.2,0.5,6.5,1.4c1.3,0.9,2,2.8,2,5.5
				C20.7,150.7,17.2,153.2,10.2,153.2z M3.5,145.7c0,1.7,0.5,2.8,1.4,3.5c0.9,0.6,2.6,1,5.2,1c2.5,0,4.3-0.3,5.4-1
				c1.1-0.7,1.6-1.9,1.6-3.5c0-1.6-0.4-2.7-1.2-3.1c-0.8-0.5-2.3-0.7-4.6-0.7l-5.1-0.2c-1,0.8-1.7,1.4-2.1,2
				C3.7,144.1,3.5,144.9,3.5,145.7z M3.8,126c0,1.9,0.4,3.2,1.3,4c0.8,0.8,2.2,1.2,4.1,1.2s3.3-0.4,4.1-1.2c0.8-0.8,1.2-2.1,1.2-4
				c0-1.9-0.4-3.2-1.2-4s-2.2-1.2-4.1-1.2s-3.3,0.4-4.1,1.2C4.2,122.8,3.8,124.2,3.8,126z"/>
			<path d="M49,142v-23.6h0.3c1.8,0,3.2,1.4,3.2,3.2v0c2.7-1.9,5.6-3.1,8.7-3.7v3.6c-1.3,0.3-2.7,0.6-4.1,1.2
				c-1.4,0.5-2.5,1-3.3,1.4l-1.2,0.6V142H49z"/>
			<path d="M82.9,108.1V142h-3.5v-1.6c-2.4,1.4-4.8,2.1-7.2,2.1c-1.3,0-2.4-0.2-3.3-0.5c-0.9-0.3-1.8-0.9-2.6-1.7
				c-1.7-1.7-2.6-4.8-2.6-9.4s0.8-7.9,2.3-9.9c1.5-2,4.1-3.1,7.6-3.1c1.8,0,3.8,0.2,5.8,0.6v-7C79.4,109.7,81,108.1,82.9,108.1
				L82.9,108.1z M70.6,139c0.6,0.2,1.3,0.3,2.2,0.3s1.9-0.2,3-0.5c1.1-0.3,2-0.6,2.6-0.9l0.9-0.4v-16c-2-0.4-3.9-0.6-5.6-0.6
				c-2.4,0-4.1,0.8-5,2.3c-0.9,1.5-1.4,3.9-1.4,7.1c0,3.7,0.6,6.1,1.7,7.4C69.5,138.4,70.1,138.8,70.6,139z"/>
			<path d="M117.2,142h-3.5v-23.6h3.5v1.7c2.6-1.4,5-2.1,7.3-2.1c3.2,0,5.3,0.9,6.4,2.6c1.1,1.7,1.6,4.7,1.6,9.1V142H129v-12.4
				c0-3.3-0.3-5.5-1-6.7c-0.6-1.2-2-1.8-4.1-1.8c-1,0-2.1,0.2-3.2,0.5c-1.1,0.3-2,0.6-2.6,0.9l-0.9,0.4V142z"/>
			<path d="M162.9,142v-23.6h0.3c1.8,0,3.2,1.4,3.2,3.2v0c2.7-1.9,5.6-3.1,8.7-3.7v3.6c-1.3,0.3-2.7,0.6-4.1,1.2
				c-1.4,0.5-2.5,1-3.3,1.4l-1.2,0.6V142H162.9z"/>
			<path d="M42,137.6v-12.1c0-2.6-0.6-4.5-1.8-5.8c-1.2-1.2-3.2-1.8-5.8-1.8c-2,0-4.1,0.2-6.5,0.6c-1.5,0.2-2.7,1.6-2.6,3.2l1.5-0.1
				c2.7-0.3,5.3-0.5,7.8-0.5c1.2,0,2.1,0.3,2.8,1c0.7,0.7,1,1.7,1,3.2h0v0.2v2v2.7v2.4v5.4l-1.1,0.4c-2.1,0.7-4.2,1.1-6.3,1.1
				c-2.4,0-3.6-1.4-3.6-4.3c0-1.3,0.3-2.3,0.9-3c0.6-0.7,1.7-1.1,3.1-1.2l4.8-0.5v-2.7l-5.2,0.5c-2.5,0.3-4.3,0.9-5.5,2
				c-1.2,1.1-1.7,2.8-1.7,5.1s0.6,4.1,1.7,5.3c1.1,1.2,2.8,1.8,5,1.8c2.8,0,5.7-0.6,8.5-1.9c0.7,0.7,1.5,1.1,2.5,1.5
				c1.6,0.5,3.2-0.7,3.3-2.4C43,139.5,42.1,138.8,42,137.6z"/>
			<path d="M107.9,131.7l0.2-2.7c0-3.8-0.8-6.6-2.4-8.4c-1.6-1.8-4-2.7-7.1-2.7c-6.6,0-9.9,4.1-9.9,12.4c0,4.2,0.7,7.2,2.1,9.2
				c1.4,2,3.8,3,7.2,3c2.6,0,5.6-0.3,9.2-0.8l-0.1-2.8l-1.4,0.1c-2.4,0.2-4.8,0.3-7.2,0.3s-4-0.6-4.9-1.9c-0.9-1.3-1.4-3.2-1.4-5.8
				c0-1.1,0-2.8,0-2.8c0-2.8,0.6-4.8,1.6-6.1c1.1-1.3,2.6-1.9,4.7-1.9s3.6,0.6,4.5,1.8c0.9,1.2,1.4,3.2,1.4,6.1H94.5v2.8H107.9z"/>
			<path d="M157.2,131.7l0.2-2.7c0-3.8-0.8-6.6-2.4-8.4c-1.6-1.8-4-2.7-7.1-2.7c-6.6,0-9.9,4.1-9.9,12.4c0,4.2,0.7,7.2,2.1,9.2
				c1.4,2,3.8,3,7.2,3c2.6,0,5.6-0.3,9.2-0.8l-0.1-2.8l-1.4,0.1c-2.4,0.2-4.8,0.3-7.2,0.3c-2.3,0-4-0.6-4.9-1.9
				c-0.9-1.3-1.4-3.2-1.4-5.8c0-1.1,0-2.8,0-2.8c0-2.8,0.6-4.8,1.6-6.1c1.1-1.3,2.6-1.9,4.7-1.9s3.6,0.6,4.5,1.8
				c0.9,1.2,1.4,3.2,1.4,6.1h-10.1v2.8H157.2z"/>
		</g>
	</g>
</g>
</svg>
